<?xml version="1.0" encoding="UTF-8" standalone="no"?>
<svg width="460px" height="127px" viewBox="0 0 460 127" version="1.1" xmlns="http://www.w3.org/2000/svg" xmlns:xlink="http://www.w3.org/1999/xlink" xmlns:sketch="http://www.bohemiancoding.com/sketch/ns">
    <!-- Generator: Sketch 3.3.3 (12072) - http://www.bohemiancoding.com/sketch -->
    <title>Imported Layers</title>
    <desc>Created with Sketch.</desc>
    <defs></defs>
    <g id="Page-1" stroke="none" stroke-width="1" fill="none" fill-rule="evenodd" sketch:type="MSPage">
        <g id="Imported-Layers" sketch:type="MSLayerGroup">
            <path d="M320.323,45.661 C322.637,47.819 322.328,53.635 320.32,57.024 C318.368,60.317 315.588,62.291 312.188,63.46 C311.063,63.848 309.585,63.368 308.307,63.101 C307.213,62.872 306.175,62.38 304.564,61.81 C304.835,69.802 300.716,77.134 303.621,84.666 C304.017,84.805 304.412,84.944 304.808,85.083 C307.908,81.481 311.008,77.878 314.109,74.275 C315.403,81.118 313.264,86.96 307.773,90.953 C304.328,93.458 301.387,91.363 298.935,89.812 C292.551,85.772 289.538,75.699 291.884,68.478 C292.374,66.972 292.618,65.36 292.777,63.777 C293.402,57.536 295.129,51.709 299.079,46.722 C299.899,45.687 300.927,44.751 302.024,44.014 C305.25,41.849 317.484,43.012 320.323,45.661 L320.323,45.661 Z M258.468,23.32 C260.528,19.33 263.728,16.543 267.518,14.465 C271.738,12.15 275.94,9.303 280.511,8.236 C290.067,6.006 297.909,10.141 303.461,17.7 C306.362,21.649 306.653,26.57 304.953,31.767 C303.182,37.181 300.664,42.006 296.602,45.704 C293.225,48.78 289.109,51.13 285.079,53.367 C282.998,54.523 281.396,55.264 281.517,58.097 C281.932,67.865 281.683,77.681 282.565,87.4 C283.076,93.036 285.114,98.566 286.757,104.056 C287.87,107.772 289.323,111.414 290.93,114.949 C292.703,118.851 296.399,120.068 300.236,119.902 C304.795,119.704 308.768,117.801 310.237,113.014 C310.922,110.782 312.403,110.406 313.803,111.262 C314.709,111.816 315.565,114.01 315.169,114.901 C310.897,124.494 302.17,127.321 293.734,125.696 C286,124.207 280.103,119.232 275.962,112.471 C272.609,106.999 270.454,101.081 269.879,94.629 C269.01,84.882 268.098,75.139 267.174,65.397 C267.073,64.335 266.771,63.293 266.563,62.241 C266.306,62.268 266.048,62.295 265.791,62.322 C264.795,67.192 263.895,72.085 262.772,76.926 C261.865,80.836 260.94,84.781 259.507,88.512 C258.956,89.946 256.94,91.798 255.652,91.753 C253.418,91.674 250.5,90.798 250.233,87.896 C249.901,84.281 249.867,80.549 250.395,76.97 C250.999,72.884 252.504,68.94 253.364,64.881 C254.594,59.072 255.594,53.215 256.733,47.165 C254.97,47.819 253.465,48.468 251.905,48.934 C249.587,49.627 247.56,48.289 246.804,46.63 C245.991,44.847 245.64,42.024 246.521,40.462 C248.651,36.684 251.664,33.412 254.225,29.866 C255.748,27.759 257.28,25.621 258.468,23.32 L258.468,23.32 Z M99.856,54.631 C97.531,62.253 95.652,70.012 93.646,77.729 C93.088,79.874 92.473,82.074 92.423,84.261 C92.381,86.094 93.189,87.935 93.501,89.793 C93.737,91.205 93.785,92.649 93.917,94.079 C92.257,93.958 90.22,94.41 89.009,93.61 C85.432,91.247 83.187,87.792 82.055,83.528 C79.784,74.964 82.125,67.169 85.368,59.365 C87.12,55.152 88.318,50.704 89.677,46.335 C89.913,45.573 89.71,44.675 89.71,43.286 C81.599,48.656 76.739,55.37 74.629,64.208 C73.025,70.926 70.921,77.524 69.072,84.185 C67.972,88.151 65.463,90.668 62.532,90.646 C59.305,90.621 56.491,88.53 56.459,84.889 C56.424,80.786 57.093,76.557 58.201,72.591 C60.102,65.784 62.587,59.14 64.804,52.42 C64.934,52.027 64.858,51.566 64.878,51.148 C60.927,50.147 59.194,51.306 58.376,55.051 C56.968,61.498 55.671,67.992 53.783,74.303 C52.631,78.151 50.956,82.046 48.644,85.301 C43.723,92.228 41.735,90.697 35.461,85.69 C32.997,83.724 31.133,81.006 28.81,78.423 C26.084,82.766 22.725,85.356 17.445,85.587 C10.979,85.869 5.486,80.057 3.438,75.443 C0.637,69.134 -0.441,62.442 0.528,55.649 C1.661,47.708 3.325,39.841 4.813,31.953 C5.445,28.599 6.176,25.263 6.931,21.934 C8.203,16.321 9.828,10.49 13.966,6.593 C21.202,-0.222 26.219,-1.263 35.246,4.492 C39.877,7.444 43.528,11.595 46.026,16.568 C46.504,17.52 46.608,18.916 46.32,19.95 C45.266,23.733 43.928,27.435 42.782,31.194 C41.561,35.202 39.725,35.559 36.441,32.871 C31.141,28.532 30.954,22.191 33.366,17.42 C34.838,14.51 35.924,11.426 32.704,8.394 C29.772,7.924 28.158,10.653 26.568,12.562 C22.921,16.944 20.919,22.16 19.833,27.84 C18.782,33.336 16.998,38.689 15.66,44.135 C15.25,45.807 15.201,47.576 15.072,49.307 C14.514,56.846 13.896,64.383 13.515,71.932 C13.427,73.683 14.142,75.487 14.567,77.248 C15.277,80.178 16.898,79.683 18.424,78.034 C21.04,75.207 23.752,72.41 25.957,69.271 C29.046,64.873 30.926,59.91 32.627,54.743 C33.768,51.277 36.948,48.204 39.846,45.679 C42.319,43.525 45.592,42.148 48.708,40.933 C50.241,40.336 52.924,40.148 53.872,41.05 C57.358,44.37 61.313,43.718 65.357,43.405 C67.195,43.264 69.103,42.902 70.866,43.236 C72.512,43.547 74.237,44.376 75.525,45.456 C78.275,47.764 79.512,47.941 82.057,45.176 C84.545,42.472 87.479,41.356 91.111,41.581 C97.455,41.975 101.701,48.586 99.856,54.631 L99.856,54.631 Z M146.437,61.42 C146.087,66.195 145.227,70.959 144.23,75.651 C143.421,79.455 142.086,83.147 140.875,87.263 C142.089,87.411 142.822,87.5 144.227,87.672 C143.826,89.918 143.886,92.357 142.946,94.316 C140.361,99.706 134.82,99.906 131.637,94.873 C127.418,88.198 128.29,81.122 130.264,74.022 C131.795,68.512 133.679,63.082 134.859,57.501 C135.28,55.514 134.092,53.187 133.521,50.455 C132.438,51.332 131.824,51.573 131.708,51.962 C128.982,61.126 126.346,70.316 123.611,79.478 C122.496,83.215 121.277,86.927 119.946,90.592 C118.527,94.5 110.449,96.264 106.826,93.489 C103.308,90.796 101.262,87.213 100.905,82.777 C100.281,75.019 102.186,67.673 104.478,60.35 C105.656,56.589 106.251,52.646 107.119,48.787 C108.006,44.843 108.906,40.901 109.908,36.48 C104.028,36.48 98.709,36.711 93.422,36.396 C90.079,36.198 86.672,35.502 83.525,34.38 C82.283,33.938 80.859,31.672 80.958,30.344 C81.11,28.299 83.201,27.92 85.254,28.003 C92.752,28.306 100.255,28.498 107.758,28.671 C112.257,28.774 113.518,27.431 113.936,22.968 C114.104,21.17 114.881,19.43 115.381,17.663 C117.464,18.547 119.75,19.143 121.563,20.414 C122.83,21.302 123.452,23.113 124.358,24.513 C125.601,26.435 126.868,28.037 129.625,27.912 C134.285,27.7 138.961,27.853 143.702,28.415 C137.687,30.254 131.634,31.982 125.689,34.022 C124.403,34.463 122.855,35.866 122.536,37.109 C120.763,44.034 119.439,51.073 117.753,58.022 C115.621,66.811 113.193,75.53 111.153,84.339 C110.867,85.57 112.06,87.144 112.568,88.559 C113.347,87.934 114.468,87.468 114.847,86.656 C116.717,82.652 118.785,78.675 120.051,74.469 C122.84,65.2 125.176,55.796 127.745,46.46 C127.958,45.686 128.398,44.871 128.969,44.321 C129.972,43.355 131.212,41.856 132.252,41.934 C133.21,42.005 134.66,43.778 134.805,44.938 C135.328,49.103 138.092,51.372 141.358,52.949 C145.085,54.749 146.709,57.709 146.437,61.42 L146.437,61.42 Z M180.942,57.554 C180.409,59.159 180.634,61 180.288,62.687 C178.678,70.535 177.405,78.383 178.581,86.445 C178.728,87.453 177.841,89.545 177.542,89.524 C176.166,89.432 174.503,89.12 173.544,88.235 C171.499,86.349 169.825,84.06 168.05,81.995 C165.583,83.799 163.346,86.32 160.57,87.27 C155.853,88.885 150.676,84.863 147.954,79.842 C145.835,75.935 147.289,72.634 147.89,69.06 C149.164,61.487 151.172,54.233 156.936,48.638 C160.804,44.884 167.848,43.764 172.675,46.119 C173.603,46.572 174.621,46.864 175.623,47.139 C180.05,48.354 182.404,53.147 180.942,57.554 L180.942,57.554 Z M201.531,87.9 C198.15,92.856 194.543,93.121 189.463,89.498 C183.798,85.457 180.934,80.304 181.5,73.017 C182.178,64.291 184.375,56.036 187.455,47.936 C188.012,46.473 188.219,44.731 189.158,43.586 C192.14,39.953 194.582,39.955 199.551,42.176 C205.993,45.056 208.874,53.117 207.877,59.175 C207.434,61.866 204.637,64.944 202.777,64.808 C200.154,64.615 196.968,61.097 196.877,58.034 C196.83,56.43 197.267,54.817 197.357,53.201 C197.447,51.585 197.376,49.959 197.376,48.337 C197.171,48.24 196.967,48.144 196.762,48.047 C195.742,50.615 194.342,53.102 193.776,55.766 C192.067,63.813 188.981,71.661 189.683,80.088 C189.825,81.793 190.381,83.685 191.362,85.047 C192.782,87.018 194.937,88.047 197.046,85.813 C199.875,82.816 202.541,79.665 205.273,76.577 C205.598,76.209 205.846,75.746 206.231,75.468 C206.523,75.257 206.976,75.268 207.358,75.18 C207.649,75.383 207.941,75.587 208.232,75.79 C206.024,79.844 204.119,84.105 201.531,87.9 L201.531,87.9 Z M225.298,91.042 C222.794,92.791 218.965,92.781 216.315,90.17 C214.38,88.262 212.463,85.598 212.042,83.024 C210.517,73.722 211.796,64.459 213.541,55.25 C214.733,48.962 215.609,42.613 216.657,36.098 C214.845,36.098 213.459,36.112 212.074,36.096 C204.361,36.009 196.644,36.03 188.939,35.732 C187.253,35.667 185.398,34.731 184.026,33.67 C183.143,32.988 182.277,30.656 182.656,30.259 C184.018,28.832 185.816,27.22 187.629,26.966 C190.318,26.59 193.156,27.404 195.939,27.549 C202.651,27.899 209.367,28.318 216.083,28.359 C218.413,28.373 219.947,26.517 219.841,24.048 C219.722,21.299 220.909,19.786 223.526,19.376 C226.335,18.937 227.957,20.637 228.793,22.945 C230.855,28.641 230.773,28.671 236.82,29.727 C235.391,30.419 234.01,31.553 232.524,31.713 C228.945,32.098 227.926,34.521 227.472,37.382 C226.478,43.649 225.603,49.936 224.76,56.226 C223.661,64.428 222.633,72.64 221.603,80.851 C221.527,81.458 221.677,82.094 222.481,83.243 C225.127,80.213 227.772,77.183 230.29,74.299 C232.287,79.185 229.834,87.875 225.298,91.042 L225.298,91.042 Z M397.662,25.664 C396.328,30.746 394.325,35.654 393,40.738 C391.009,48.382 389.277,56.097 387.593,63.817 C386.724,67.798 386.102,71.841 385.569,75.883 C385.413,77.071 385.513,78.838 386.248,79.49 C387.923,80.974 387.881,82.861 386.568,83.572 C385.308,84.255 382.721,84.077 381.656,83.172 C379.922,81.698 378.955,79.321 377.657,77.331 C377.196,76.625 376.711,75.935 376.152,75.112 C374.779,77.931 373.778,80.493 372.359,82.798 C368.808,88.57 363.271,90.821 356.205,84.258 C355.317,85.506 354.609,86.92 353.53,87.944 C349.621,91.654 345.051,91.318 341.584,87.171 C340.184,85.497 339.57,84.96 337.93,87.429 C336.019,90.307 332.618,92.362 328.916,91.5 C325.255,90.649 322.165,85.957 320.682,81.621 C318.281,74.596 320.631,71.303 322.637,64.977 C324.191,60.074 326.413,55.345 328.707,50.722 C331.232,45.633 338.273,43.114 343.62,45.087 C346.267,46.063 349.175,46.772 351.376,48.399 C354,50.338 354.792,53.216 353.849,56.796 C351.893,64.218 350.472,71.78 348.809,79.28 C348.496,80.693 348.078,82.082 347.553,84.074 C350.97,82.782 352.447,80.651 352.931,77.912 C353.865,72.61 354.276,67.198 355.491,61.968 C357.125,54.933 360.158,48.372 366.157,44.035 C368.054,42.663 371.308,42.656 373.886,42.832 C382.125,43.392 382.873,42.802 384.953,34.795 C386.899,27.302 389.182,19.887 391.642,12.547 C392.061,11.298 394.519,9.549 395.336,9.861 C397.08,10.527 399.617,12.405 399.603,13.764 C399.561,17.742 398.683,21.776 397.662,25.664 L397.662,25.664 Z" id="Fill-1" fill="#FFFFFF" sketch:type="MSShapeGroup"></path>
            <path d="M459.167,75.443 L459.167,68.417 C458.057,70.519 456.675,72.491 454.834,74.238 C452.162,76.774 449.664,79.596 446.647,81.638 C443.427,83.818 439.687,85.23 435.354,87.385 C435.875,85.323 435.991,84.236 436.416,83.288 C438.845,77.88 441.146,72.401 443.884,67.151 C446.288,62.541 445.938,59.081 440.871,55.137 C436.257,51.546 433.995,47.047 437.636,42.785 C435.801,41.932 434.015,41.049 432.186,40.263 C429.876,39.271 428.953,40.099 428.55,42.593 C427.871,46.808 427.395,51.236 425.7,55.073 C421.495,64.595 416.395,73.677 408.357,80.648 C406.083,82.62 404.279,85.457 400.469,85.78 C400.469,81.697 400.314,77.916 400.53,74.157 C400.65,72.053 401.502,70.213 403.972,69.488 C408.372,68.197 412.75,67.036 416.078,63.289 C421.748,56.908 422.813,50.903 417.159,44.844 C411.431,38.705 405.138,38.528 400.967,45.204 C397.197,51.239 395.258,58.624 393.542,65.664 C392.356,70.53 392.913,75.822 392.707,80.924 C392.497,86.112 397.457,90.694 402.672,89.214 C406.418,88.152 410.467,86.666 413.276,84.139 C417.556,80.289 421.148,75.567 424.53,70.854 C427.474,66.752 429.723,62.15 432.277,57.766 C433.506,62.499 429.849,68.56 427.163,74.137 C425.463,77.665 425.045,86.403 426.954,88.859 C431.694,94.955 441.284,95.205 447.237,91.977 C452.276,89.245 455.993,85.266 458.871,80.516 C459.045,79.073 459.157,77.623 459.217,76.167 C459.187,75.935 459.167,75.695 459.167,75.443 L459.167,75.443 Z M412.625,47.818 C415.05,53.615 409.996,61.119 403.907,63.297 C403.87,57.18 408.265,49.529 412.625,47.818 L412.625,47.818 Z" id="Fill-2" fill="#000000" sketch:type="MSShapeGroup"></path>
            <path d="M91.111,41.581 C87.479,41.356 84.545,42.472 82.057,45.176 C79.512,47.941 78.275,47.764 75.525,45.456 C74.237,44.376 72.512,43.547 70.866,43.236 C69.103,42.902 67.195,43.264 65.357,43.405 C61.313,43.718 57.358,44.37 53.872,41.05 C52.924,40.148 50.241,40.336 48.708,40.933 C45.592,42.148 42.319,43.525 39.846,45.679 C36.948,48.204 33.768,51.277 32.627,54.743 C30.926,59.91 29.046,64.873 25.957,69.271 C23.752,72.41 21.04,75.207 18.424,78.034 C16.898,79.683 15.277,80.178 14.567,77.248 C14.142,75.487 13.427,73.683 13.515,71.932 C13.896,64.383 14.514,56.846 15.072,49.307 C15.201,47.576 15.25,45.807 15.66,44.135 C16.998,38.689 18.782,33.336 19.833,27.84 C20.919,22.16 22.921,16.944 26.568,12.562 C28.158,10.653 29.772,7.924 32.704,8.394 C35.924,11.426 34.838,14.51 33.366,17.42 C30.954,22.191 31.141,28.532 36.441,32.871 C39.725,35.559 41.561,35.202 42.782,31.194 C43.928,27.435 45.266,23.733 46.32,19.95 C46.608,18.916 46.504,17.52 46.026,16.568 C43.528,11.595 39.877,7.444 35.246,4.492 C26.219,-1.263 21.202,-0.222 13.966,6.593 C9.828,10.49 8.203,16.321 6.931,21.934 C6.176,25.263 5.445,28.599 4.813,31.953 C3.325,39.841 1.661,47.708 0.528,55.649 C-0.441,62.442 0.637,69.134 3.438,75.443 C5.486,80.057 10.979,85.869 17.445,85.587 C22.725,85.356 26.084,82.766 28.81,78.423 C31.133,81.006 32.997,83.724 35.461,85.69 C41.735,90.697 43.723,92.228 48.644,85.301 C50.956,82.046 52.631,78.151 53.783,74.303 C55.671,67.992 56.968,61.498 58.376,55.051 C59.194,51.306 60.927,50.147 64.878,51.148 C64.858,51.566 64.934,52.027 64.804,52.42 C62.587,59.14 60.102,65.784 58.201,72.591 C57.093,76.557 56.424,80.786 56.459,84.889 C56.491,88.53 59.305,90.621 62.532,90.646 C65.463,90.668 67.972,88.151 69.072,84.185 C70.921,77.524 73.025,70.926 74.629,64.208 C76.739,55.37 81.599,48.656 89.71,43.286 C89.71,44.675 89.913,45.573 89.677,46.335 C88.318,50.704 87.12,55.152 85.368,59.365 C82.125,67.169 79.784,74.964 82.055,83.528 C83.187,87.792 85.432,91.247 89.009,93.61 C90.22,94.41 92.257,93.958 93.917,94.079 C93.785,92.649 93.737,91.205 93.501,89.793 C93.189,87.935 92.381,86.094 92.423,84.261 C92.473,82.074 93.088,79.874 93.646,77.729 C95.652,70.012 97.531,62.253 99.856,54.631 C101.701,48.586 97.455,41.975 91.111,41.581 L91.111,41.581 Z M44.43,80.266 C43.687,81.343 41.593,81.487 40.126,82.063 C39.783,81.78 39.44,81.497 39.097,81.214 C40.034,75.862 40.507,70.373 42.036,65.196 C43.587,59.948 46.185,55.009 48.31,49.929 C48.431,49.641 48.561,49.238 48.453,48.991 C48.147,48.288 48.036,47.69 48.072,47.171 C48.161,45.873 49.172,45.071 50.374,44.369 C50.615,44.228 50.863,44.091 51.113,43.955 C53.355,44.535 54.187,45.964 54.482,47.752 C54.58,48.348 54.619,48.983 54.631,49.641 C54.831,61.052 50.769,71.076 44.43,80.266 L44.43,80.266 Z" id="Fill-3" fill="#000000" sketch:type="MSShapeGroup"></path>
            <path d="M246.804,46.63 C247.56,48.289 249.587,49.627 251.905,48.934 C253.465,48.468 254.97,47.819 256.733,47.165 C255.594,53.215 254.594,59.072 253.364,64.881 C252.504,68.94 250.999,72.884 250.395,76.97 C249.867,80.549 249.901,84.281 250.233,87.896 C250.5,90.798 253.418,91.674 255.652,91.753 C256.94,91.798 258.956,89.946 259.507,88.512 C260.94,84.781 261.865,80.836 262.772,76.926 C263.895,72.085 264.795,67.192 265.791,62.322 C266.048,62.295 266.306,62.268 266.563,62.241 C266.771,63.293 267.073,64.335 267.174,65.397 C268.098,75.139 269.01,84.882 269.879,94.629 C270.454,101.081 272.609,106.999 275.962,112.471 C280.103,119.232 286,124.207 293.734,125.696 C302.17,127.321 310.897,124.494 315.169,114.901 C315.565,114.01 314.709,111.816 313.803,111.262 C312.403,110.406 310.922,110.782 310.237,113.014 C308.768,117.801 304.795,119.704 300.236,119.902 C296.399,120.068 292.703,118.851 290.93,114.949 C289.323,111.414 287.87,107.772 286.757,104.056 C285.114,98.566 283.076,93.036 282.565,87.4 C281.683,77.681 281.932,67.865 281.517,58.097 C281.396,55.264 282.998,54.523 285.079,53.367 C289.109,51.13 293.225,48.78 296.602,45.704 C300.664,42.006 303.182,37.181 304.953,31.767 C306.653,26.57 306.362,21.649 303.461,17.7 C297.909,10.141 290.067,6.006 280.511,8.236 C275.94,9.303 271.738,12.15 267.518,14.465 C263.728,16.543 260.528,19.33 258.468,23.32 C257.28,25.621 255.748,27.759 254.225,29.866 C251.664,33.412 248.651,36.684 246.521,40.462 C245.64,42.024 245.991,44.847 246.804,46.63 L246.804,46.63 Z M272.67,26 C273.367,23.709 276.216,21.578 278.591,20.401 C282.693,18.368 287.1,16.739 291.556,15.701 C295.013,14.894 295.818,16.047 295.548,19.599 C295.103,25.439 292.47,30.478 288.506,34.457 C284.638,38.339 280.093,41.621 275.531,44.7 C273.855,45.83 271.278,45.624 268.469,46.147 C269.934,38.719 270.784,32.202 272.67,26 L272.67,26 Z" id="Fill-4" fill="#000000" sketch:type="MSShapeGroup"></path>
            <path d="M395.336,9.861 C394.519,9.549 392.061,11.298 391.642,12.547 C389.182,19.887 386.899,27.302 384.953,34.795 C382.873,42.802 382.125,43.392 373.886,42.832 C371.308,42.656 368.054,42.663 366.157,44.035 C360.158,48.372 357.125,54.933 355.491,61.968 C354.276,67.198 353.865,72.61 352.931,77.912 C352.447,80.651 350.97,82.782 347.553,84.074 C348.078,82.082 348.496,80.693 348.809,79.28 C350.472,71.78 351.893,64.218 353.849,56.796 C354.792,53.216 354,50.338 351.376,48.399 C349.175,46.772 346.267,46.063 343.62,45.087 C338.273,43.114 331.232,45.633 328.707,50.722 C326.413,55.345 324.191,60.074 322.637,64.977 C320.631,71.303 318.281,77.596 320.682,84.621 C322.165,88.957 325.255,90.649 328.916,91.5 C332.618,92.362 336.019,90.307 337.93,87.429 C339.57,84.96 340.184,85.497 341.584,87.171 C345.051,91.318 349.621,91.654 353.53,87.944 C354.609,86.92 355.317,85.506 356.205,84.258 C363.271,90.821 368.808,88.57 372.359,82.798 C373.778,80.493 374.779,77.931 376.152,75.112 C376.711,75.935 376.789,77.711 377.25,78.417 C378.549,80.407 379.922,81.698 381.656,83.172 C382.721,84.077 385.308,84.255 386.568,83.572 C387.881,82.861 387.923,80.974 386.248,79.49 C385.513,78.838 385.413,77.071 385.569,75.883 C386.102,71.841 386.724,67.798 387.593,63.817 C389.277,56.097 391.009,48.382 393,40.738 C394.325,35.654 396.328,30.746 397.662,25.664 C398.683,21.776 399.561,17.742 399.603,13.764 C399.617,12.405 397.08,10.527 395.336,9.861 L395.336,9.861 Z M344.475,55.143 C343.714,58.246 343.108,61.387 342.34,64.488 C340.586,71.565 338.549,78.513 332.523,83.37 C332.154,83.667 331.661,83.81 330.894,84.19 C330.486,74.872 339.159,51.87 345.929,50.646 C345.366,52.364 344.822,53.729 344.475,55.143 L344.475,55.143 Z M374.923,70.485 C371.82,74.895 369.285,80.38 362.56,82.252 C363.865,76.164 364.633,70.874 366.173,65.819 C368.283,58.899 371.58,52.608 378.92,48.802 C381.085,56.904 379.396,64.129 374.923,70.485 L374.923,70.485 Z" id="Fill-5" fill="#000000" sketch:type="MSShapeGroup"></path>
            <path d="M141.358,52.949 C138.092,51.372 135.328,49.103 134.805,44.938 C134.66,43.778 133.21,42.005 132.252,41.934 C131.212,41.856 129.972,43.355 128.969,44.321 C128.398,44.871 127.958,45.686 127.745,46.46 C125.176,55.796 122.84,65.2 120.051,74.469 C118.785,78.675 116.717,82.652 114.847,86.656 C114.468,87.468 113.347,87.934 112.568,88.559 C112.06,87.144 110.867,85.57 111.153,84.339 C113.193,75.53 115.621,66.811 117.753,58.022 C119.439,51.073 120.763,44.034 122.536,37.109 C122.855,35.866 124.403,34.463 125.689,34.022 C131.634,31.982 137.687,30.254 143.702,28.415 C138.961,27.853 134.285,27.7 129.625,27.912 C126.868,28.037 125.601,26.435 124.358,24.513 C123.452,23.113 122.83,21.302 121.563,20.414 C119.75,19.143 117.464,18.547 115.381,17.663 C114.881,19.43 114.104,21.17 113.936,22.968 C113.518,27.431 112.257,28.774 107.758,28.671 C100.255,28.498 92.752,28.306 85.254,28.003 C83.201,27.92 81.11,28.299 80.958,30.344 C80.859,31.672 82.283,33.938 83.525,34.38 C86.672,35.502 90.079,36.198 93.422,36.396 C98.709,36.711 104.028,36.48 109.908,36.48 C108.906,40.901 108.006,44.843 107.119,48.787 C106.251,52.646 105.656,56.589 104.478,60.35 C102.186,67.673 100.281,75.019 100.905,82.777 C101.262,87.213 103.308,90.796 106.826,93.489 C110.449,96.264 118.527,94.5 119.946,90.592 C121.277,86.927 122.496,83.215 123.611,79.478 C126.346,70.316 128.982,61.126 131.708,51.962 C131.824,51.573 132.438,51.332 133.521,50.455 C134.092,53.187 135.28,55.514 134.859,57.501 C133.679,63.082 131.795,68.512 130.264,74.022 C128.29,81.122 127.418,88.198 131.637,94.873 C134.82,99.906 140.361,99.706 142.946,94.316 C143.886,92.357 143.826,89.918 144.227,87.672 C142.822,87.5 142.089,87.411 140.875,87.263 C142.086,83.147 143.421,79.455 144.23,75.651 C145.227,70.959 146.087,66.195 146.437,61.42 C146.709,57.709 145.085,54.749 141.358,52.949" id="Fill-6" fill="#000000" sketch:type="MSShapeGroup"></path>
            <path d="M230.29,74.299 C227.772,77.183 225.127,80.213 222.481,83.243 C221.677,82.094 221.527,81.458 221.603,80.851 C222.633,72.64 223.661,64.428 224.76,56.226 C225.603,49.936 226.478,43.649 227.472,37.382 C227.926,34.521 228.945,32.098 232.524,31.713 C234.01,31.553 235.391,30.419 236.82,29.727 C230.773,28.671 230.855,28.641 228.793,22.945 C227.957,20.637 226.335,18.937 223.526,19.376 C220.909,19.786 219.722,21.299 219.841,24.048 C219.947,26.517 218.413,28.373 216.083,28.359 C209.367,28.318 202.651,27.899 195.939,27.549 C193.156,27.404 190.318,26.59 187.629,26.966 C185.816,27.22 184.018,28.832 182.656,30.259 C182.277,30.656 183.143,32.988 184.026,33.67 C185.398,34.731 187.253,35.667 188.939,35.732 C196.644,36.03 204.361,36.009 212.074,36.096 C213.459,36.112 214.845,36.098 216.657,36.098 C215.609,42.613 214.733,48.962 213.541,55.25 C211.796,64.459 210.517,73.722 212.042,83.024 C212.463,85.598 214.38,88.262 216.315,90.17 C218.965,92.781 222.794,92.791 225.298,91.042 C229.834,87.875 232.287,79.185 230.29,74.299" id="Fill-7" fill="#000000" sketch:type="MSShapeGroup"></path>
            <path d="M175.623,47.139 C174.621,46.864 173.603,46.572 172.675,46.119 C167.848,43.764 160.804,44.884 156.936,48.638 C151.172,54.233 149.164,61.487 147.89,69.06 C147.289,72.634 145.835,75.935 147.954,79.842 C150.676,84.863 155.853,88.885 160.57,87.27 C163.346,86.32 165.583,83.799 168.05,81.995 C169.825,84.06 171.499,86.349 173.544,88.235 C174.503,89.12 176.166,89.432 177.542,89.524 C177.841,89.545 178.728,87.453 178.581,86.445 C177.405,78.383 178.678,70.535 180.288,62.687 C180.634,61 180.409,59.159 180.942,57.554 C182.404,53.147 180.05,48.354 175.623,47.139 L175.623,47.139 Z M157.489,79.224 C157.998,68.388 163.059,60.295 170.028,52.671 C171.337,58.13 161.787,75.405 157.489,79.224 L157.489,79.224 Z" id="Fill-8" fill="#000000" sketch:type="MSShapeGroup"></path>
            <path d="M299.079,46.722 C295.129,51.709 293.402,57.536 292.777,63.777 C292.618,65.36 292.374,66.972 291.884,68.478 C289.538,75.699 292.551,85.772 298.935,89.812 C301.387,91.363 304.328,93.458 307.773,90.953 C313.264,86.96 315.403,81.118 314.109,74.275 C311.008,77.878 307.908,81.481 304.808,85.083 C304.412,84.944 304.017,84.805 303.621,84.666 C300.716,77.134 304.835,69.802 304.564,61.81 C306.175,62.38 307.213,62.872 308.307,63.101 C309.585,63.368 311.063,63.848 312.188,63.46 C315.588,62.291 318.368,60.317 320.32,57.024 C322.328,53.635 322.637,47.819 320.323,45.661 C317.484,43.012 305.25,41.849 302.024,44.014 C300.927,44.751 299.899,45.687 299.079,46.722 L299.079,46.722 Z M311.79,49.769 C312.2,49.58 313.205,49.693 313.228,49.807 C313.411,50.725 313.805,51.901 313.411,52.574 C312.475,54.174 311.203,55.597 309.947,56.982 C309.124,57.889 308.092,58.605 306.888,59.634 C306.601,57.202 309.944,50.622 311.79,49.769 L311.79,49.769 Z" id="Fill-9" fill="#000000" sketch:type="MSShapeGroup"></path>
            <path d="M206.231,75.468 C205.846,75.746 205.598,76.209 205.273,76.577 C202.541,79.665 199.875,82.816 197.046,85.813 C194.937,88.047 192.782,87.018 191.362,85.047 C190.381,83.685 189.825,81.793 189.683,80.088 C188.981,71.661 192.067,63.813 193.776,55.766 C194.342,53.102 195.742,50.615 196.762,48.047 C196.967,48.144 197.171,48.24 197.376,48.337 C197.376,49.959 197.447,51.585 197.357,53.201 C197.267,54.817 196.83,56.43 196.877,58.034 C196.968,61.097 200.154,64.615 202.777,64.808 C204.637,64.944 207.434,61.866 207.877,59.175 C208.874,53.117 205.993,45.056 199.551,42.176 C194.582,39.955 192.14,39.953 189.158,43.586 C188.219,44.731 188.012,46.473 187.455,47.936 C184.375,56.036 182.178,64.291 181.5,73.017 C180.934,80.304 183.798,85.457 189.463,89.498 C194.543,93.121 198.15,92.856 201.531,87.9 C204.119,84.105 206.024,79.844 208.232,75.79 C207.941,75.587 207.649,75.383 207.358,75.18 C206.976,75.268 206.523,75.257 206.231,75.468" id="Fill-10" fill="#000000" sketch:type="MSShapeGroup"></path>
            <path d="M50.374,44.369 C49.172,45.071 48.161,45.873 48.072,47.171 C48.161,45.873 49.171,45.071 50.374,44.369" id="Fill-11" fill="#FFFFFF" sketch:type="MSShapeGroup"></path>
        </g>
    </g>
</svg>