<?xml version="1.0" standalone="no"?>
<!DOCTYPE svg PUBLIC "-//W3C//DTD SVG 20010904//EN"
 "http://www.w3.org/TR/2001/REC-SVG-20010904/DTD/svg10.dtd">
<svg version="1.0" xmlns="http://www.w3.org/2000/svg"
 width="128.000000pt" height="128.000000pt" viewBox="0 0 128.000000 128.000000"
 preserveAspectRatio="xMidYMid meet">
<metadata>
Created by potrace 1.11, written by Peter Selinger 2001-2013
</metadata>
<g transform="translate(0.000000,128.000000) scale(0.100000,-0.100000)"
fill="#000000" stroke="none">
<path d="M109 1171 l-29 -29 0 -502 0 -502 29 -29 29 -29 365 0 364 0 27 26
c26 27 26 27 26 189 0 89 -3 165 -7 168 -3 4 -17 -3 -30 -15 -22 -20 -23 -28
-23 -153 0 -88 -4 -135 -12 -143 -17 -17 -679 -17 -696 0 -17 17 -17 959 0
976 9 9 78 12 250 12 l238 0 0 -91 c0 -129 0 -129 120 -129 l100 0 0 -62 0
-62 30 29 c25 24 30 36 30 77 0 48 -2 50 -106 163 -58 64 -114 120 -124 125
-11 6 -130 10 -285 10 l-267 0 -29 -29z"/>
<path d="M1065 911 c-17 -10 -100 -89 -185 -175 l-155 -156 53 -52 52 -53 124
124 c110 109 127 123 141 111 14 -12 7 -22 -66 -96 -78 -78 -90 -104 -51 -104
22 0 222 200 222 222 0 23 -22 28 -43 10 -22 -19 -48 -1 -32 22 6 7 18 25 29
40 49 70 -18 152 -89 107z"/>
<path d="M256 834 c-14 -36 11 -44 139 -44 97 0 125 3 135 15 10 12 10 18 0
30 -19 23 -265 22 -274 -1z"/>
<path d="M262 668 c-7 -7 -8 -17 -1 -30 9 -17 26 -18 217 -18 l208 0 29 30 29
30 -235 0 c-164 0 -238 -3 -247 -12z"/>
<path d="M622 477 c-43 -47 -86 -109 -105 -148 -31 -63 -34 -66 -52 -52 -23
16 -60 10 -89 -15 -18 -16 -19 -16 -11 8 4 14 9 41 12 62 6 46 -22 67 -67 48
-28 -12 -80 -92 -80 -124 0 -30 27 -16 45 24 36 79 86 95 59 18 -26 -74 -2
-99 64 -65 39 19 43 19 60 4 16 -15 22 -14 87 17 79 37 147 86 218 154 l47 46
-52 53 c-29 29 -55 53 -58 52 -3 0 -38 -37 -78 -82z"/>
<path d="M256 495 c-3 -8 2 -21 10 -30 12 -12 41 -15 138 -15 l122 0 29 30 29
30 -161 0 c-132 0 -162 -3 -167 -15z"/>
</g>
</svg>
